<?xml version="1.0" standalone="no"?><!DOCTYPE svg PUBLIC "-//W3C//DTD SVG 1.1//EN" "http://www.w3.org/Graphics/SVG/1.1/DTD/svg11.dtd"><svg t="1640667661568" class="icon" viewBox="0 0 1024 1024" version="1.1" xmlns="http://www.w3.org/2000/svg" p-id="2386" xmlns:xlink="http://www.w3.org/1999/xlink" width="200" height="200"><defs><style type="text/css"></style></defs><path d="M512 1024c282.752 0 512-229.248 512-512S794.752 0 512 0 0 229.248 0 512s229.248 512 512 512z m0-85.333333C276.352 938.666667 85.333333 747.648 85.333333 512S276.352 85.333333 512 85.333333s426.666667 191.018667 426.666667 426.666667-191.018667 426.666667-426.666667 426.666667z" fill="#FFBB20" p-id="2387"></path><path d="M512 917.333333a405.333333 405.333333 0 1 0 0-810.666666 405.333333 405.333333 0 0 0 0 810.666666z m0-42.666666a362.666667 362.666667 0 1 1 0-725.333334 362.666667 362.666667 0 0 1 0 725.333334z" fill="#FFBB20" p-id="2388"></path><path d="M545.024 521.557333h128L682.666667 512.426667v-45.909334l-9.557334-9.045333h-115.072l103.210667-101.504 2.645333-6.442667v-20.309333l-9.472-9.216h-47.317333l-6.613333 2.56c-6.528 6.101333-16.384 15.232-26.154667 24.533333-12.586667 11.989333-20.949333 20.138667-24.576 23.978667-1.408 0.981333 3.754667-4.096-25.386667 25.045333l-12.373333 12.458667-56.064-53.76-14.506667-14.634667c-6.698667-6.613333-13.226667-13.098667-17.493333-17.408l-6.826667-2.773333H369.450667l-9.514667 9.258667 0.085333 8.405333 0.042667 2.432 0.085333 9.386667c0 6.314667 8.96 15.232 60.074667 64.938666l1.92 1.877334c12.970667 12.586667 26.88 25.898667 40.746667 39.210666 0.682667 0.64 1.365333 1.194667 2.005333 1.962667H350.890667L341.333333 466.517333v45.909334l9.514667 9.130666h127.701333v51.541334h-127.573333l-9.472 9.216v45.482666l9.514667 9.173334h127.786666v100.48l9.472 9.216h47.573334l9.472-9.216-0.384-100.352h128.213333l9.514667-9.130667v-45.824l-9.514667-9.088h-127.957333l-0.170667-51.498667z" fill="#E01313" p-id="2389"></path></svg>