<?xml version="1.0" standalone="no"?><!DOCTYPE svg PUBLIC "-//W3C//DTD SVG 1.1//EN" "http://www.w3.org/Graphics/SVG/1.1/DTD/svg11.dtd"><svg t="1640596730954" class="icon" viewBox="0 0 1024 1024" version="1.1" xmlns="http://www.w3.org/2000/svg" p-id="5424" xmlns:xlink="http://www.w3.org/1999/xlink" width="200" height="200"><defs><style type="text/css"></style></defs><path d="M664 875.2H223.2c-4.8 0-9.6-2.4-12.8-6.4C112 732.8 56 524.8 56 298.4c0-8.8 7.2-16 16-16h742.4c8.8 0 16 7.2 16 16 0 227.2-56 435.2-153.6 570.4-3.2 4-8 6.4-12.8 6.4z m-432.8-32h424c87.2-125.6 140.8-321.6 143.2-528.8H88c2.4 207.2 55.2 403.2 143.2 528.8z" p-id="5425"></path><path d="M629.6 803.2H256.8c-4.8 0-8-3.2-8-8s3.2-8 8-8h368c64.8-106.4 107.2-260.8 116-425.6 0-4.8 4-8 8.8-7.2 4.8 0 8 4 7.2 8.8-8.8 168.8-52.8 328-120.8 436-0.8 2.4-4 4-6.4 4zM850.4 702.4c-35.2 0-70.4-14.4-97.6-40.8-6.4-6.4-6.4-16-0.8-22.4 6.4-6.4 16-6.4 22.4-0.8 21.6 20.8 48 32 75.2 32 68 0 123.2-68 123.2-152s-55.2-152-123.2-152c-11.2 0-21.6 1.6-32 4.8-8 2.4-17.6-1.6-20-10.4-2.4-8 1.6-17.6 10.4-20 13.6-4.8 28-7.2 42.4-7.2 85.6 0 155.2 82.4 155.2 184s-69.6 184.8-155.2 184.8zM957.6 982.4H66.4c-6.4 0-12-4-14.4-9.6L5.6 866.4c-2.4-4.8-1.6-10.4 1.6-15.2s8-7.2 13.6-7.2h984c5.6 0 10.4 2.4 13.6 7.2s3.2 10.4 1.6 15.2l-46.4 106.4c-3.2 5.6-9.6 9.6-16 9.6z m-880.8-32h871.2l32-74.4H44l32.8 74.4zM255.2 231.2c-8.8 0-16-7.2-16-16V133.6c0-8.8 7.2-16 16-16s16 7.2 16 16v81.6c0 8.8-7.2 16-16 16zM443.2 231.2c-8.8 0-16-7.2-16-16V57.6c0-8.8 7.2-16 16-16s16 7.2 16 16v157.6c0 8.8-7.2 16-16 16zM631.2 231.2c-8.8 0-16-7.2-16-16V133.6c0-8.8 7.2-16 16-16s16 7.2 16 16v81.6c0 8.8-7.2 16-16 16z" p-id="5426"></path></svg>